<?xml version="1.0" encoding="UTF-8" standalone="no"?>
<svg width="603px" height="101px" viewBox="0 0 603 101" version="1.1" xmlns="http://www.w3.org/2000/svg" xmlns:xlink="http://www.w3.org/1999/xlink" xmlns:sketch="http://www.bohemiancoding.com/sketch/ns">
    <title>muckrack-logotype</title>
    <description>Created with Sketch (http://www.bohemiancoding.com/sketch)</description>
    <defs></defs>
    <g id="Page-1" stroke="none" stroke-width="1" fill="none" fill-rule="evenodd" sketch:type="MSPage">
        <g id="muckrack-logotype" sketch:type="MSLayerGroup" transform="translate(0.000000, 1.000000)" fill="#F2F2F2">
            <g id="Page-1" sketch:type="MSShapeGroup">
                <g id="Group">
                    <path d="M61.689,97.807 L60.632,50.317 L42.297,82.24 L39.131,82.24 L20.266,50.316 L19.475,97.806 L0.215,97.806 L3.381,0.845 L10.24,0.581 L41.111,51.37 L70.923,0.581 L77.782,0.845 L81.081,97.806 L61.689,97.807 L61.689,97.807 Z" id="Shape"></path>
                    <path d="M123.271,99.258 C103.88,99.258 91.48,88.573 91.48,66.147 L91.48,1.109 L111.533,1.109 L111.533,66.277 C111.533,75.644 115.621,81.185 123.931,81.185 C132.111,81.185 135.935,75.644 135.935,66.277 L135.935,1.109 L155.99,1.109 L155.99,66.146 C155.99,88.836 142.93,99.258 123.271,99.258 L123.271,99.258 L123.271,99.258 Z" id="Shape"></path>
                    <path d="M204.922,99.258 C181.572,99.258 164.16,79.338 164.16,49.789 C164.16,20.369 181.045,-0.34 205.318,-0.34 C213.629,-0.34 220.752,1.769 227.613,6.386 L220.621,23.271 C216.004,20.238 211.121,18.39 205.846,18.39 C193.842,18.39 185.133,29.341 185.133,48.865 C185.133,68.783 193.445,80.525 206.11,80.525 C211.518,80.525 216.663,78.808 221.546,75.511 L228.009,92.265 C221.017,97.146 213.234,99.258 204.922,99.258 L204.922,99.258 L204.922,99.258 Z" id="Shape"></path>
                    <path d="M278.602,97.807 L254.067,52.164 L254.067,97.807 L234.014,97.807 L234.014,1.109 L254.067,1.109 L254.067,43.851 L277.284,1.109 L299.71,1.109 L272.14,47.281 L301.425,97.806 L278.602,97.807 L278.602,97.807 Z" id="Shape"></path>
                    <path d="M369.893,97.807 L357.758,64.563 C356.834,64.696 355.779,64.696 354.854,64.696 C352.877,64.696 351.424,64.563 349.709,64.432 L349.709,97.807 L329.658,97.807 L329.658,1.77 C335.593,0.979 343.246,0.319 351.82,0.319 C377.545,0.319 388.758,14.698 388.758,31.716 C388.758,43.722 384.01,52.429 374.906,58.628 L391.791,97.808 L369.893,97.807 L369.893,97.807 Z M354.723,18.523 C352.744,18.523 351.557,18.654 349.709,18.919 L349.709,48.071 C351.424,48.335 352.217,48.335 353.932,48.335 C363.034,48.335 368.311,43.19 368.311,32.901 C368.31,23.934 363.562,18.523 354.723,18.523 L354.723,18.523 L354.723,18.523 Z" id="Shape"></path>
                    <path d="M448.15,97.807 L443.005,81.053 L419.128,81.053 L413.983,97.807 L394.196,97.807 L426.647,0.582 L436.012,0.582 L468.332,97.807 L448.15,97.807 L448.15,97.807 Z M431.133,38.441 L424.143,64.562 L437.993,64.562 L431.133,38.441 L431.133,38.441 Z" id="Shape"></path>
                    <path d="M506.424,99.258 C483.074,99.258 465.66,79.338 465.66,49.789 C465.66,20.369 482.547,-0.34 506.82,-0.34 C515.13,-0.34 522.254,1.769 529.115,6.386 L522.123,23.271 C517.506,20.238 512.625,18.39 507.348,18.39 C495.344,18.39 486.637,29.341 486.637,48.865 C486.637,68.783 494.947,80.525 507.612,80.525 C513.02,80.525 518.165,78.808 523.046,75.511 L529.511,92.265 C522.519,97.146 514.736,99.258 506.424,99.258 L506.424,99.258 L506.424,99.258 Z" id="Shape"></path>
                    <path d="M580.104,97.807 L555.569,52.164 L555.569,97.807 L535.516,97.807 L535.516,1.109 L555.569,1.109 L555.569,43.851 L578.786,1.109 L601.212,1.109 L573.642,47.281 L602.927,97.806 L580.104,97.807 L580.104,97.807 Z" id="Shape"></path>
                </g>
            </g>
        </g>
    </g>
</svg>