<?xml version="1.0" encoding="utf-8"?>
<!-- Generator: Adobe Illustrator 17.0.2, SVG Export Plug-In . SVG Version: 6.00 Build 0)  -->
<!DOCTYPE svg PUBLIC "-//W3C//DTD SVG 1.1//EN" "http://www.w3.org/Graphics/SVG/1.1/DTD/svg11.dtd">
<svg version="1.1" id="Layer_1" xmlns="http://www.w3.org/2000/svg" xmlns:xlink="http://www.w3.org/1999/xlink" x="0px" y="0px"
	 width="551.296px" height="155.09px" viewBox="0 0 551.296 155.09" enable-background="new 0 0 551.296 155.09"
	 xml:space="preserve">
<g id="Background_xA0_Image_1_">
</g>
<g id="Group_1_1_">
	<g id="Layer_5_xA0_Image_1_">
	</g>
	<g id="Layer_1_xA0_Image_1_">
	</g>
	<g id="Layer_6_copy_xA0_Image_1_" opacity="0.549">
	</g>
	<g id="Journalist_Directory" opacity="0.651">
	</g>
	<g id="Layer_8_xA0_Image_1_">
	</g>
	<g id="Press_Releases" opacity="0.651">
	</g>
	<g id="Media_Lists" opacity="0.651">
	</g>
</g>
<g id="Layer_7_xA0_Image_1_">
</g>
<g id="Layer_3_xA0_Image_1_">
</g>
<g id="Welcome_x2C__Lee___Account___Logout_1_">
</g>
<g id="MUCK_RACK">
</g>
<g id="Layer_9_copy_2_xA0_Image_1_">
</g>
<g>
	<path fill="#F2F2F2" d="M332.348,25.293c4.043,24.613,27.08,46.284,42.273,56.885c13.917,9.706,38.831,22.243,36.486,72.481h26.897
		c-2.356-50.238,22.557-62.775,36.469-72.481C494.738,68.044,528.931,34.231,513.458,0c-9.566,19.53-28.784,21.059-44.354,27.197
		c-11.133,4.388-44.486,14.778-44.486,35.394h-0.14c0-20.616-33.347-31.006-44.472-35.394C364.426,21.059,345.225,19.53,335.63,0
		C331.768,8.56,331.004,17.088,332.348,25.293"/>
	<path fill="#F2F2F2" d="M339.038,154.659c-0.909-19.278,8.663-24.09,13.992-27.815c7.782-5.423,20.916-18.409,14.975-31.546
		c-3.671,7.496-11.047,8.08-17.034,10.438c-4.274,1.681-17.068,5.672-17.068,13.589h-0.054c0-7.917-12.799-11.908-17.074-13.589
		c-5.984-2.359-13.354-2.942-17.031-10.438c-5.938,13.137,7.188,26.123,14.964,31.546c5.343,3.725,14.907,8.537,14.003,27.815
		L339.038,154.659L339.038,154.659z"/>
	<path fill="#F2F2F2" d="M518.833,154.659c-0.903-19.278,8.674-24.09,14.009-27.815c7.771-5.423,20.893-18.409,14.958-31.546
		c-3.671,7.496-11.041,8.08-17.023,10.438c-4.277,1.681-17.074,5.672-17.074,13.589h-0.051c0-7.917-12.808-11.908-17.074-13.589
		c-5.987-2.359-13.357-2.942-17.034-10.438c-5.941,13.137,7.193,26.123,14.97,31.546c5.341,3.725,14.901,8.537,13.998,27.815
		L518.833,154.659L518.833,154.659z"/>
</g>
<g>
	<g>
		<path fill="#F2F2F2" d="M36.359,153.374l-1.681-22.713H23.574l-2.356,22.713h-9.255L24.586,41.328h10.598l11.768,112.047H36.359
			V153.374z M29.806,68.755l-5.221,51.992h9.255L29.806,68.755z"/>
		<path fill="#F2F2F2" d="M88.497,153.374H79.24l-6.216-70.493l-7.405,70.493h-9.252L47.115,41.328h9.921l5.055,79.239l8.411-79.239
			h7.565l6.896,79.239l6.387-79.239h9.1L88.497,153.374z"/>
		<path fill="#F2F2F2" d="M123.869,153.374l-1.687-22.713H111.08l-2.347,22.713H99.47l12.62-112.047h10.601l11.774,112.047H123.869z
			 M117.305,68.755l-5.215,51.992h9.252L117.305,68.755z"/>
		<path fill="#F2F2F2" d="M171.427,154.218c-5.89,0-8.406-2.196-8.406-10.435V111.15c0-4.54-2.35-7.402-5.895-7.402h-6.05v49.628
			h-10.264V41.328h16.983c6.57,0,14.81,3.368,14.81,17.669v26.078c0,6.73-1.687,11.773-6.89,14.135
			c5.203,2.35,7.228,7.399,7.228,13.952v30.452c0,3.036,0.337,4.383,2.19,4.383v6.221L171.427,154.218L171.427,154.218z
			 M162.524,57.99c0-4.54-2.03-6.399-4.895-6.399h-6.553V93.98h5.707c3.374,0,5.741-2.847,5.741-7.393V57.99z"/>
		<path fill="#F2F2F2" d="M198.542,153.374h-16.834V41.328h16.834c11.27,0,15.811,7.073,15.811,22.049v67.966
			C214.353,146.31,209.813,153.374,198.542,153.374z M204.249,61.524c0-7.239-1.51-9.932-5.707-9.932h-6.564v91.524h6.564
			c4.197,0,5.707-2.693,5.707-9.755V61.524z"/>
		<path fill="#F2F2F2" d="M237.506,154.721c-10.436,0-16.663-7.742-16.663-19.007v-15.147h9.766v15.65
			c0,5.546,2.682,9.752,6.553,9.752c5.215,0,7.239-3.534,7.239-9.752c0-11.27-3.877-21.7-9.927-34.326
			c-5.386-11.093-12.791-28.088-12.791-39.704c0-12.952,5.055-22.201,16.994-22.201c9.252,0,15.142,7.734,15.142,19.17v16.328
			h-9.589V59.497c0-6.722-2.013-9.921-5.712-9.921c-4.386,0-7.073,2.859-7.073,8.92c0,13.112,4.031,21.869,10.933,36.336
			c6.398,13.62,11.779,26.569,11.779,38.357C254.157,150.681,244.23,154.721,237.506,154.721z"/>
	</g>
</g>
<g>
	<path fill="#F2F2F2" d="M33.981,30.12c-6.73,0-13.872-1.721-17.921-4.123l3.954-6.776c5.386,2.233,10.61,3.116,14.144,3.116
		c2.444,0,3.905-0.46,3.905-1.215c0-2.693-20.82-0.68-20.82-11.362C17.244,4.417,23.139,0,34.615,0
		c7.908,0,14.307,1.933,17.292,3.579l-4.249,6.436c-4.666-1.435-9.04-2.224-12.028-2.224c-2.021,0-3.282,0.36-3.282,1.166
		c0,2.994,19.948,0.472,19.948,10.776C52.296,26.034,46.609,30.12,33.981,30.12z"/>
	<path fill="#F2F2F2" d="M79.022,29.071v-9.726h-7.408v9.726H56.97V1.046h14.644V11.57h7.408V1.046h14.684V29.07L79.022,29.071
		L79.022,29.071z"/>
	<path fill="#F2F2F2" d="M116.29,30.12c-12.034,0-19.056-6.727-19.056-14.85v-0.506C97.235,6.604,104.256,0,116.29,0
		c11.991,0,19.021,6.604,19.021,14.764v0.506C135.311,23.393,128.281,30.12,116.29,30.12z M120.373,14.681
		c0-3.111-0.677-5.972-4.083-5.972c-3.411,0-4.126,2.862-4.126,5.972v0.715c0,3.068,0.715,5.936,4.126,5.936
		c3.405,0,4.083-2.868,4.083-5.936V14.681z"/>
	<path fill="#F2F2F2" d="M163.022,29.071c-1.687,0-3.368-1.853-3.368-4.337v-2.565c0-1.981-0.423-2.985-2.562-2.985h-2.453v9.886
		h-14.593V1.046h22.507c7.617,0,12.203,3.322,12.203,7.831v0.374c0,2.699-2.562,5.472-6.69,6.27
		c4.878,0.466,6.233,3.328,6.233,6.567v2.313c0,1.773,0.417,3.076,1.51,4.243v0.426L163.022,29.071L163.022,29.071z M159.951,11.528
		c0-1.475-0.801-2.022-2.991-2.022h-2.322v4.455h2.322c2.19,0,2.991-0.918,2.991-2.307V11.528z"/>
	<path fill="#F2F2F2" d="M203.18,10.813v18.258h-14.633V10.813h-10.361V1.046h35.349v9.766L203.18,10.813L203.18,10.813z"/>
	<path fill="#F2F2F2" d="M243.79,19.559v9.512h-14.65v-9.512L215.977,1.046h16.199l5.381,8.168l5.175-8.168h14.564L243.79,19.559z"
		/>
</g>
</svg>
