<?xml version="1.0" encoding="utf-8"?>
<!-- Generator: Adobe Illustrator 17.0.2, SVG Export Plug-In . SVG Version: 6.00 Build 0)  -->
<!DOCTYPE svg PUBLIC "-//W3C//DTD SVG 1.1//EN" "http://www.w3.org/Graphics/SVG/1.1/DTD/svg11.dtd">
<svg version="1.1" id="Layer_1" xmlns="http://www.w3.org/2000/svg" xmlns:xlink="http://www.w3.org/1999/xlink" x="0px" y="0px"
	 width="185.625px" height="155.09px" viewBox="0 0 185.625 155.09" enable-background="new 0 0 185.625 155.09"
	 xml:space="preserve">
<g id="Background_xA0_Image_1_">
</g>
<g id="Group_1_1_">
	<g id="Layer_5_xA0_Image_1_">
	</g>
	<g id="Layer_1_xA0_Image_1_">
	</g>
	<g id="Layer_6_copy_xA0_Image_1_" opacity="0.549">
	</g>
	<g id="Journalist_Directory" opacity="0.651">
	</g>
	<g id="Layer_8_xA0_Image_1_">
	</g>
	<g id="Press_Releases" opacity="0.651">
	</g>
	<g id="Media_Lists" opacity="0.651">
	</g>
</g>
<g id="Layer_7_xA0_Image_1_">
</g>
<g id="Layer_3_xA0_Image_1_">
</g>
<g id="Welcome_x2C__Lee___Account___Logout_1_">
</g>
<g id="MUCK_RACK">
</g>
<g id="Layer_9_copy_2_xA0_Image_1_">
</g>
<g>
	<path fill="#04ACA6" d="M0.614,25.293c4.043,24.613,27.08,46.284,42.273,56.885c13.917,9.706,38.831,22.243,36.486,72.481h26.897
		c-2.356-50.238,22.557-62.775,36.469-72.481C163.004,68.044,197.197,34.231,181.724,0c-9.566,19.53-28.784,21.059-44.354,27.197
		c-11.133,4.388-44.486,14.778-44.486,35.394h-0.14c0-20.616-33.347-31.006-44.472-35.394C32.692,21.059,13.491,19.53,3.896,0
		C0.034,8.56-0.73,17.088,0.614,25.293"/>
</g>
</svg>
