<?xml version="1.0" encoding="UTF-8" standalone="no"?>
<svg width="247px" height="155px" viewBox="0 0 247 155" version="1.1" xmlns="http://www.w3.org/2000/svg" xmlns:xlink="http://www.w3.org/1999/xlink" xmlns:sketch="http://www.bohemiancoding.com/sketch/ns">
    <title>Untitled 6</title>
    <description>Created with Sketch (http://www.bohemiancoding.com/sketch)</description>
    <defs></defs>
    <g id="Page-1" stroke="none" stroke-width="1" fill="none" fill-rule="evenodd" sketch:type="MSPage">
        <g id="shorty-dark" sketch:type="MSLayerGroup" transform="translate(1.000000, 0.000000)" fill="#F2F2F2">
            <g id="Group" transform="translate(0.000000, 40.000000)" sketch:type="MSShapeGroup">
                <path d="M24.359,113.374 L22.678,90.661 L11.574,90.661 L9.218,113.374 L-0.037,113.374 L12.586,1.328 L23.184,1.328 L34.952,113.375 L24.359,113.375 L24.359,113.374 L24.359,113.374 Z M17.806,28.755 L12.585,80.747 L21.84,80.747 L17.806,28.755 L17.806,28.755 Z" id="Shape"></path>
                <path d="M76.497,113.374 L67.24,113.374 L61.024,42.881 L53.619,113.374 L44.367,113.374 L35.115,1.328 L45.036,1.328 L50.091,80.567 L58.502,1.328 L66.067,1.328 L72.963,80.567 L79.35,1.328 L88.45,1.328 L76.497,113.374 L76.497,113.374 Z" id="Shape"></path>
                <path d="M111.869,113.374 L110.182,90.661 L99.08,90.661 L96.733,113.374 L87.47,113.374 L100.09,1.327 L110.691,1.327 L122.465,113.374 L111.869,113.374 L111.869,113.374 Z M105.305,28.755 L100.09,80.747 L109.342,80.747 L105.305,28.755 L105.305,28.755 Z" id="Shape"></path>
                <path d="M159.427,114.218 C153.537,114.218 151.021,112.022 151.021,103.783 L151.021,71.15 C151.021,66.61 148.671,63.748 145.126,63.748 L139.076,63.748 L139.076,113.376 L128.812,113.376 L128.812,1.328 L145.795,1.328 C152.365,1.328 160.605,4.696 160.605,18.997 L160.605,45.075 C160.605,51.805 158.918,56.848 153.715,59.21 C158.918,61.56 160.943,66.609 160.943,73.162 L160.943,103.614 C160.943,106.65 161.28,107.997 163.133,107.997 L163.133,114.218 L159.427,114.218 L159.427,114.218 Z M150.524,17.99 C150.524,13.45 148.494,11.591 145.629,11.591 L139.076,11.591 L139.076,53.98 L144.783,53.98 C148.157,53.98 150.524,51.133 150.524,46.587 L150.524,17.99 L150.524,17.99 Z" id="Shape"></path>
                <path d="M186.542,113.374 L169.708,113.374 L169.708,1.328 L186.542,1.328 C197.812,1.328 202.353,8.401 202.353,23.377 L202.353,91.343 C202.353,106.31 197.813,113.374 186.542,113.374 L186.542,113.374 Z M192.249,21.524 C192.249,14.285 190.739,11.592 186.542,11.592 L179.978,11.592 L179.978,103.116 L186.542,103.116 C190.739,103.116 192.249,100.423 192.249,93.361 L192.249,21.524 L192.249,21.524 Z" id="Shape"></path>
                <path d="M225.506,114.721 C215.07,114.721 208.843,106.979 208.843,95.714 L208.843,80.567 L218.609,80.567 L218.609,96.217 C218.609,101.763 221.291,105.969 225.162,105.969 C230.377,105.969 232.401,102.435 232.401,96.217 C232.401,84.947 228.524,74.517 222.474,61.891 C217.088,50.798 209.683,33.803 209.683,22.187 C209.683,9.235 214.738,-0.014 226.677,-0.014 C235.929,-0.014 241.819,7.72 241.819,19.156 L241.819,35.484 L232.23,35.484 L232.23,19.497 C232.23,12.775 230.217,9.576 226.518,9.576 C222.132,9.576 219.445,12.435 219.445,18.496 C219.445,31.608 223.476,40.365 230.378,54.832 C236.776,68.452 242.157,81.401 242.157,93.189 C242.157,110.681 232.23,114.721 225.506,114.721 L225.506,114.721 Z" id="Shape"></path>
            </g>
            <g id="Group" transform="translate(4.000000, 0.000000)" sketch:type="MSShapeGroup">
                <path d="M17.981,30.12 C11.251,30.12 4.109,28.399 0.06,25.997 L4.014,19.221 C9.4,21.454 14.624,22.337 18.158,22.337 C20.602,22.337 22.063,21.877 22.063,21.122 C22.063,18.429 1.243,20.442 1.243,9.76 C1.244,4.417 7.139,0 18.615,0 C26.523,0 32.922,1.933 35.907,3.579 L31.658,10.015 C26.992,8.58 22.618,7.791 19.63,7.791 C17.609,7.791 16.348,8.151 16.348,8.957 C16.348,11.951 36.296,9.429 36.296,19.733 C36.296,26.034 30.609,30.12 17.981,30.12 L17.981,30.12 Z" id="Shape"></path>
                <path d="M63.022,29.071 L63.022,19.345 L55.614,19.345 L55.614,29.071 L40.97,29.071 L40.97,1.046 L55.614,1.046 L55.614,11.57 L63.022,11.57 L63.022,1.046 L77.706,1.046 L77.706,29.07 L63.022,29.071 L63.022,29.071 Z" id="Shape"></path>
                <path d="M100.29,30.12 C88.256,30.12 81.234,23.393 81.234,15.27 L81.234,14.764 C81.235,6.604 88.256,0 100.29,0 C112.281,0 119.311,6.604 119.311,14.764 L119.311,15.27 C119.311,23.393 112.281,30.12 100.29,30.12 L100.29,30.12 Z M104.373,14.681 C104.373,11.57 103.696,8.709 100.29,8.709 C96.879,8.709 96.164,11.571 96.164,14.681 L96.164,15.396 C96.164,18.464 96.879,21.332 100.29,21.332 C103.695,21.332 104.373,18.464 104.373,15.396 L104.373,14.681 L104.373,14.681 Z" id="Shape"></path>
                <path d="M147.022,29.071 C145.335,29.071 143.654,27.218 143.654,24.734 L143.654,22.169 C143.654,20.188 143.231,19.184 141.092,19.184 L138.639,19.184 L138.639,29.07 L124.046,29.07 L124.046,1.046 L146.553,1.046 C154.17,1.046 158.756,4.368 158.756,8.877 L158.756,9.251 C158.756,11.95 156.194,14.723 152.066,15.521 C156.944,15.987 158.299,18.849 158.299,22.088 L158.299,24.401 C158.299,26.174 158.716,27.477 159.809,28.644 L159.809,29.07 L147.022,29.071 L147.022,29.071 Z M143.951,11.528 C143.951,10.053 143.15,9.506 140.96,9.506 L138.638,9.506 L138.638,13.961 L140.96,13.961 C143.15,13.961 143.951,13.043 143.951,11.654 L143.951,11.528 L143.951,11.528 Z" id="Shape"></path>
                <path d="M187.18,10.813 L187.18,29.071 L172.547,29.071 L172.547,10.813 L162.186,10.813 L162.186,1.046 L197.535,1.046 L197.535,10.812 L187.18,10.813 L187.18,10.813 Z" id="Shape"></path>
                <path d="M227.79,19.559 L227.79,29.071 L213.14,29.071 L213.14,19.559 L199.977,1.046 L216.176,1.046 L221.557,9.214 L226.732,1.046 L241.296,1.046 L227.79,19.559 L227.79,19.559 Z" id="Shape"></path>
            </g>
        </g>
    </g>
</svg>