<?xml version="1.0" encoding="utf-8"?>
<!-- Generator: Adobe Illustrator 17.0.2, SVG Export Plug-In . SVG Version: 6.00 Build 0)  -->
<!DOCTYPE svg PUBLIC "-//W3C//DTD SVG 1.1//EN" "http://www.w3.org/Graphics/SVG/1.1/DTD/svg11.dtd">
<svg version="1.1" id="Layer_1" xmlns="http://www.w3.org/2000/svg" xmlns:xlink="http://www.w3.org/1999/xlink" x="0px" y="0px"
	 width="738.746px" height="182.779px" viewBox="0 0 738.746 182.779" enable-background="new 0 0 738.746 182.779"
	 xml:space="preserve">
<path fill="#30303D" d="M73.308,123.315c-2.108,3.701-4.935,6.758-8.495,9.174c-3.561,2.426-7.699,4.249-12.402,5.483
	c-4.703,1.236-9.706,1.854-15.005,1.854c-4.926,0-9.358-0.479-13.282-1.437c-3.939-0.966-7.428-2.192-10.487-3.707
	c-3.058-1.498-5.714-3.166-7.946-5.005c-2.239-1.82-4.131-3.551-5.691-5.197l11.645-13.288c0.742,1.097,1.9,2.393,3.499,3.899
	c1.598,1.506,3.513,2.942,5.753,4.316c2.239,1.374,4.71,2.532,7.397,3.498c2.703,0.957,5.506,1.437,8.432,1.437
	c2.464,0,4.819-0.255,7.058-0.756c2.232-0.503,4.17-1.229,5.823-2.187c1.637-0.966,2.942-2.2,3.899-3.707
	c0.958-1.506,1.444-3.267,1.444-5.274c0-3.281-1.699-5.984-5.073-8.086c-3.375-2.099-8.626-3.743-15.761-4.925
	c-6.302-1.005-11.529-2.473-15.684-4.387c-4.162-1.914-7.467-4.109-9.938-6.579c-2.456-2.464-4.201-5.182-5.205-8.155
	c-1.004-2.965-1.506-6.047-1.506-9.243c0-3.653,0.873-7.197,2.602-10.619c1.738-3.428,4.186-6.424,7.337-8.973
	c3.15-2.563,6.919-4.618,11.306-6.17c4.386-1.552,9.174-2.324,14.378-2.324c4.758,0,9.021,0.387,12.812,1.158
	c3.791,0.78,7.143,1.83,10.077,3.15c2.92,1.329,5.483,2.811,7.669,4.456c2.193,1.645,4.07,3.29,5.614,4.935L62.21,68.581
	c-1.189-1.375-2.649-2.68-4.387-3.908c-1.738-1.235-3.629-2.309-5.683-3.228c-2.055-0.904-4.201-1.637-6.44-2.186
	c-2.24-0.549-4.448-0.827-6.649-0.827c-2.008,0-3.947,0.232-5.822,0.696c-1.877,0.447-3.537,1.135-4.997,2.045
	c-1.466,0.919-2.624,2.078-3.497,3.499c-0.873,1.421-1.297,3.135-1.297,5.135c0,3.019,1.437,5.344,4.317,6.988
	c2.873,1.638,7.46,3.013,13.769,4.109c5.297,0.911,10.093,2.085,14.387,3.498c4.293,1.413,7.969,3.282,11.027,5.613
	c3.058,2.332,5.414,5.143,7.058,8.426c1.645,3.29,2.463,7.267,2.463,11.932C76.458,115.3,75.408,119.617,73.308,123.315z"/>
<path fill="#30303D" d="M359.795,137.084v-38.37h-43.029v38.37h-19.862V45.692h19.862v35.762h43.029V45.692h19.864v91.392H359.795z"
	/>
<path fill="#30303D" d="M485.656,110.575c-2.424,5.884-5.806,11.011-10.131,15.343c-4.34,4.333-9.467,7.745-15.353,10.202
	c-5.898,2.471-12.262,3.707-19.119,3.707c-6.844,0-13.221-1.236-19.105-3.707c-5.9-2.457-10.982-5.869-15.275-10.202
	c-4.309-4.332-7.659-9.459-10.069-15.343c-2.424-5.893-3.629-12.264-3.629-19.121c0-6.85,1.205-13.221,3.629-19.104
	c2.41-5.901,5.761-11.036,10.069-15.414c4.294-4.387,9.376-7.815,15.275-10.287c5.885-2.462,12.262-3.69,19.105-3.69
	c6.857,0,13.221,1.228,19.119,3.69c5.886,2.472,11.013,5.9,15.353,10.287c4.325,4.378,7.707,9.513,10.131,15.414
	c2.426,5.883,3.63,12.254,3.63,19.104C489.286,98.312,488.081,104.683,485.656,110.575z M467.092,78.99
	c-1.283-3.93-3.104-7.328-5.483-10.208s-5.296-5.159-8.771-6.857c-3.46-1.684-7.399-2.533-11.784-2.533
	c-4.371,0-8.309,0.849-11.784,2.533c-3.46,1.698-6.395,3.977-8.758,6.857c-2.379,2.88-4.2,6.279-5.483,10.208
	c-1.28,3.931-1.914,8.086-1.914,12.464c0,4.387,0.634,8.526,1.914,12.402c1.283,3.885,3.104,7.26,5.483,10.147
	c2.363,2.873,5.298,5.158,8.758,6.842c3.476,1.698,7.413,2.54,11.784,2.54c4.385,0,8.324-0.842,11.784-2.54
	c3.476-1.684,6.393-3.969,8.771-6.842c2.379-2.888,4.2-6.263,5.483-10.147c1.282-3.876,1.914-8.016,1.914-12.402
	C469.006,87.076,468.374,82.921,467.092,78.99z"/>
<path fill="#30303D" d="M553.796,137.084l-18.719-34.524h-12.85v34.524H502.35V45.692h42.89c4.479,0,8.618,0.71,12.402,2.124
	c3.784,1.42,7.058,3.359,9.792,5.831c2.748,2.463,4.865,5.405,6.379,8.834c1.497,3.421,2.255,7.15,2.255,11.166
	c0,4.927-0.865,9.044-2.595,12.333c-1.745,3.29-3.768,5.986-6.102,8.085c-2.332,2.101-4.633,3.646-6.919,4.649
	c-2.285,1.01-4.016,1.698-5.205,2.062l21.514,36.309L553.796,137.084L553.796,137.084z M554.909,69.052
	c-0.679-1.598-1.621-2.988-2.795-4.177c-1.19-1.182-2.502-2.125-3.953-2.812c-1.468-0.679-2.966-1.02-4.51-1.02h-21.423v26.441
	c4.278,0.186,7.723,0.324,10.364,0.409c2.641,0.093,5.08,0.115,7.306,0.07c2.224-0.047,3.476-0.209,3.753-0.479
	c1.544,0,3.042-0.34,4.51-1.027c1.451-0.687,2.764-1.599,3.953-2.742c1.174-1.143,2.116-2.532,2.795-4.177
	c0.68-1.645,1.021-3.422,1.021-5.344C555.929,72.366,555.588,70.651,554.909,69.052z"/>
<path fill="#30303D" d="M656.951,123.315c-2.1,3.701-4.927,6.758-8.494,9.174c-3.568,2.426-7.69,4.249-12.401,5.483
	c-4.712,1.236-9.699,1.854-14.997,1.854c-4.943,0-9.359-0.479-13.299-1.437c-3.922-0.966-7.429-2.192-10.485-3.707
	c-3.058-1.498-5.699-3.166-7.938-5.005c-2.24-1.82-4.14-3.551-5.685-5.197l11.647-13.288c0.725,1.097,1.898,2.393,3.49,3.899
	c1.59,1.506,3.522,2.942,5.761,4.316c2.224,1.374,4.694,2.532,7.398,3.498c2.688,0.957,5.499,1.437,8.418,1.437
	c2.471,0,4.818-0.255,7.058-0.756c2.239-0.503,4.187-1.229,5.823-2.187c1.651-0.966,2.95-2.2,3.906-3.707
	c0.958-1.506,1.437-3.267,1.437-5.274c0-3.281-1.684-5.984-5.065-8.086c-3.382-2.099-8.634-3.743-15.753-4.925
	c-6.301-1.005-11.537-2.473-15.692-4.387c-4.153-1.914-7.476-4.109-9.931-6.579c-2.472-2.464-4.2-5.182-5.205-8.155
	c-1.004-2.965-1.514-6.047-1.514-9.243c0-3.653,0.865-7.197,2.61-10.619c1.729-3.428,4.171-6.424,7.321-8.973
	c3.151-2.563,6.92-4.618,11.305-6.17c4.387-1.552,9.189-2.324,14.395-2.324c4.742,0,9.019,0.387,12.805,1.158
	c3.782,0.78,7.15,1.83,10.069,3.15c2.917,1.329,5.483,2.811,7.676,4.456c2.192,1.645,4.061,3.29,5.621,4.935l-11.383,11.923
	c-1.174-1.375-2.641-2.68-4.371-3.908c-1.745-1.235-3.644-2.309-5.698-3.228c-2.055-0.904-4.2-1.637-6.441-2.186
	c-2.239-0.549-4.447-0.827-6.642-0.827c-2.006,0-3.953,0.232-5.82,0.696c-1.87,0.447-3.538,1.135-5.005,2.045
	c-1.452,0.919-2.626,2.078-3.491,3.499c-0.865,1.421-1.296,3.135-1.296,5.135c0,3.019,1.436,5.344,4.309,6.988
	c2.889,1.638,7.476,3.013,13.776,4.109c5.299,0.911,10.086,2.085,14.379,3.498c4.294,1.413,7.969,3.282,11.028,5.613
	c3.058,2.332,5.421,5.143,7.057,8.426c1.652,3.29,2.471,7.267,2.471,11.932C660.101,115.3,659.051,119.617,656.951,123.315z"/>
<path fill="#30303D" d="M673.106,137.084V45.692h65.64v16.17h-45.777v20.967h44.804v15.482h-44.804v22.603h45.777v16.169
	L673.106,137.084L673.106,137.084z"/>
<polygon fill="#30303D" points="113.409,103.656 124.822,71.763 115.139,45.692 115.054,45.692 78.883,137.084 101.625,137.084 
	108.204,118.451 142.167,118.451 136.669,103.656 "/>
<polygon fill="#30303D" points="267.004,45.692 253.289,110.775 234.539,45.692 217.953,45.692 202.794,104.243 213.342,132.63 
	226.316,76.118 243.977,137.084 264.935,137.084 289.198,45.692 "/>
<polygon fill="#F48120" points="156.854,18.742 149.41,0 112.351,0 180.237,182.779 217.783,182.779 "/>
<rect x="595.746" y="155.779" fill="none" width="144" height="62"/>
<text transform="matrix(1 0 0 1 634.2665 182.4587)" fill="#30303D" font-family="'ProximaNova-Semibold'" font-size="40">BLOG</text>
</svg>
